<?xml version="1.0" encoding="UTF-8"?>
<svg xmlns="http://www.w3.org/2000/svg" xmlns:xlink="http://www.w3.org/1999/xlink" width="72px" height="36px" viewBox="0 0 72 36" version="1.1">
<g id="surface1">
<path style=" stroke:none;fill-rule:evenodd;fill:rgb(100%,100%,100%);fill-opacity:1;" d="M 7.726562 13.488281 C 11.996094 13.59375 17.484375 13.652344 22.347656 13.609375 C 27.214844 13.566406 33.453125 13.148438 36.894531 13.222656 C 40.347656 13.292969 40.585938 12.417969 39.984375 11.433594 C 39.386719 10.445312 35.351562 8.054688 34.578125 6.4375 C 33.804688 4.824219 34.789062 2.8125 35.34375 1.742188 C 35.90625 0.671875 36.828125 0.03125 37.917969 0.00390625 C 39.011719 -0.0351562 38.972656 0.320312 41.898438 1.539062 L 55.488281 7.304688 C 59.492188 8.9375 63.386719 10.265625 65.9375 11.316406 C 68.496094 12.367188 69.851562 12.609375 70.8125 13.609375 C 71.773438 14.609375 72.394531 15.960938 71.710938 17.3125 C 71.035156 18.65625 70.828125 18.835938 66.753906 21.703125 C 62.675781 24.570312 51.46875 32.199219 47.246094 34.519531 C 43.03125 36.84375 41.863281 35.773438 41.457031 35.636719 C 41.042969 35.5 40.773438 33.816406 39.933594 32.824219 C 39.605469 32.027344 38.679688 31.292969 38.945312 30.445312 C 39.207031 29.597656 40.429688 28.792969 41.507812 27.742188 C 42.589844 26.699219 44.597656 25.03125 45.425781 24.167969 C 46.257812 23.308594 46.527344 23.054688 46.464844 22.566406 C 46.414062 22.070312 46.300781 21.378906 44.734375 21.421875 C 43.175781 21.460938 42.402344 21.460938 37.992188 21.632812 L 18.257812 22.464844 L 8.335938 22.824219 C 5.9375 22.960938 4.824219 23.214844 3.820312 23.292969 C 2.816406 23.363281 1.253906 23.710938 0.632812 23.191406 C 0.00390625 22.675781 -0.0859375 20.941406 0.0625 20.136719 C 0.0859375 19.402344 0.8125 19.519531 1.539062 18.355469 C 2.125 17.449219 1.757812 16.046875 2.296875 15.113281 C 2.644531 14.414062 2.726562 14.121094 3.214844 13.804688 C 3.699219 13.488281 4.527344 13.503906 5.140625 13.367188 Z M 7.726562 13.488281 "/>
</g>
</svg>
